# xmcd
#
# Track frame offsets: 
#        182
#        11325
#        28435
#        44140
#        58080
#        72000
#        90045
#        103390
#        124590
#        133282
#        151002
#
# Disc length: 2268 seconds
#
# Revision: 11
# Processed by: cddbd v1.5.2PL0 Copyright (c) Steve Scherf et al.
# Submitted via: ExactAudioCopy v0.95b3
#
DISCID=9208da0b
DTITLE=Ry Cooder - Into The Purple Valley
DYEAR=1972
DGENRE=Latin
TTITLE0=How Can You Keep Moving (Unless You Migrate Too)
TTITLE1=Billy The Kid
TTITLE2=Money Honey
TTITLE3=F.D.R. In Trinidad
TTITLE4=Teardrops Will Fall
TTITLE5=Denomination Blues
TTITLE6=On A Monday
TTITLE7=Hey Porter
TTITLE8=Great Dream From Heaven
TTITLE9=Taxes On The Farmer Feeds Us All
TTITLE10=Vigilante Man
EXTD=
EXTT0=
EXTT1=
EXTT2=
EXTT3=
EXTT4=
EXTT5=
EXTT6=
EXTT7=
EXTT8=
EXTT9=
EXTT10=
PLAYORDER=
